# xmcd
#
# Track frame offsets: 
#        150
#        14883
#        37102
#        53287
#        71746
#        85438
#        104786
#        116308
#        135887
#        156994
#        174644
#        191374
#        204942
#
# Disc length: 2991 seconds
#
# Revision: 0
# Processed by: cddbd v1.5.2PL0 Copyright (c) Steve Scherf et al.
# Submitted via: ExactAudioCopy v0.99pb4
#
DISCID=b10bad0d
DTITLE=Washboard Rope Guitar - The Brass Kings
DYEAR=2008
DGENRE=Jugband
TTITLE0=Northbound
TTITLE1=Insurance Adjuster
TTITLE2=Tin Man 
TTITLE3=Bigville
TTITLE4=Killing Time
TTITLE5=One More Taste Of Wine
TTITLE6=17th Crow Wing Lake Breakdown 
TTITLE7=Vermillion Mines
TTITLE8=Company Man Blues
TTITLE9=Western Lands
TTITLE10=Jackrabbit Blues
TTITLE11=Superhighway Blues
TTITLE12=Dabla - Tanst, Tanst Yidelakh
EXTD=
EXTT0=
EXTT1=
EXTT2=
EXTT3=
EXTT4=
EXTT5=
EXTT6=
EXTT7=
EXTT8=
EXTT9=
EXTT10=
EXTT11=
EXTT12=
PLAYORDER=
